<svg width="352" height="361" viewBox="0 0 352 361" fill="none" xmlns="http://www.w3.org/2000/svg">
<path d="M235.557 331.888L226.515 314.037L234.437 310.024C235.686 309.392 236.873 308.992 237.999 308.825C239.134 308.631 240.172 308.756 241.114 309.198C242.064 309.613 242.856 310.445 243.488 311.694C243.895 312.497 244.024 313.284 243.876 314.054C243.719 314.806 243.419 315.496 242.975 316.124C242.54 316.726 242.109 317.247 241.682 317.688L240.564 316.875C241.67 316.359 242.711 316.09 243.686 316.067C244.651 316.026 245.516 316.227 246.278 316.671C247.049 317.087 247.666 317.75 248.127 318.66C248.759 319.909 248.971 321.102 248.762 322.239C248.563 323.349 248.054 324.358 247.235 325.266C246.426 326.146 245.424 326.89 244.228 327.495L235.557 331.888ZM238.557 325.727L241.956 324.005C242.331 323.816 242.638 323.581 242.878 323.303C243.136 323.015 243.282 322.684 243.316 322.308C243.358 321.905 243.262 321.472 243.027 321.008C242.855 320.669 242.648 320.415 242.406 320.246C242.172 320.051 241.921 319.931 241.653 319.888C241.402 319.836 241.125 319.842 240.821 319.906C240.517 319.97 240.223 320.074 239.937 320.219L236.619 321.9L238.557 325.727ZM234.843 318.461L238.108 316.807C238.358 316.681 238.554 316.514 238.696 316.308C238.847 316.074 238.939 315.815 238.973 315.528C238.999 315.224 238.93 314.911 238.767 314.59C238.451 313.966 238.06 313.614 237.595 313.536C237.129 313.458 236.673 313.532 236.227 313.758L233.23 315.277L234.843 318.461Z" fill="white"/>
<path d="M257.453 320.388L246.38 303.722L254.775 298.143C256.708 296.86 258.525 296.288 260.228 296.43C261.931 296.571 263.385 297.549 264.592 299.365C265.046 300.048 265.363 300.834 265.545 301.721C265.743 302.598 265.736 303.491 265.524 304.401C265.318 305.282 264.85 306.097 264.122 306.845L262.61 305.652L272.995 310.062L267.198 313.913L258.411 309.415L261.48 309.753L258.307 311.861L261.976 317.383L257.453 320.388ZM256.149 308.613L259.372 306.471C259.938 306.095 260.297 305.604 260.448 305C260.598 304.396 260.397 303.677 259.844 302.844C259.357 302.111 258.814 301.691 258.215 301.585C257.633 301.468 257.067 301.592 256.517 301.957L253.193 304.165L256.149 308.613Z" fill="white"/>
<path d="M277.629 307.02L270.347 286.941L274.893 283.072L293.117 293.836L288.868 297.453L271.726 286.988L273.695 284.997L281.467 303.754L277.629 307.02ZM278.44 301.169L276.708 297.561L283.515 291.767L286.412 294.383L278.44 301.169Z" fill="white"/>
<path d="M301.793 283.947C301.231 284.774 300.675 285.521 300.126 286.187C299.576 286.854 299.019 287.443 298.455 287.954C297.885 288.437 297.282 288.862 296.647 289.228L292.428 286.362C293.635 285.973 294.727 285.398 295.704 284.635C296.665 283.861 297.415 283.077 297.954 282.283C298.381 281.654 298.608 281.071 298.635 280.533C298.662 279.995 298.394 279.535 297.831 279.153C297.451 278.895 297.016 278.877 296.526 279.1C296.03 279.296 295.478 279.646 294.869 280.151C294.255 280.628 293.551 281.166 292.758 281.764C292.278 282.115 291.771 282.435 291.236 282.724C290.712 282.997 290.158 283.189 289.575 283.301C288.991 283.412 288.37 283.401 287.711 283.268C287.052 283.135 286.359 282.821 285.631 282.327C284.903 281.832 284.298 281.228 283.816 280.514C283.345 279.783 283.039 278.97 282.897 278.076C282.754 277.182 282.829 276.217 283.121 275.182C283.396 274.136 283.916 273.051 284.68 271.926C285.141 271.247 285.598 270.663 286.052 270.174C286.489 269.673 286.953 269.238 287.444 268.871C287.947 268.487 288.49 268.131 289.076 267.803L293.344 270.702C292.783 270.853 292.193 271.081 291.574 271.386C290.967 271.675 290.385 272.016 289.827 272.411C289.268 272.806 288.793 273.256 288.4 273.763C288.08 274.199 287.835 274.649 287.665 275.113C287.489 275.55 287.433 275.971 287.496 276.377C287.57 276.766 287.806 277.095 288.203 277.365C288.617 277.645 289.037 277.738 289.465 277.642C289.888 277.518 290.345 277.272 290.836 276.905C291.322 276.509 291.85 276.07 292.42 275.587C293.091 275.027 293.741 274.55 294.371 274.156C295.013 273.745 295.656 273.457 296.301 273.29C296.946 273.124 297.612 273.105 298.298 273.233C298.969 273.349 299.676 273.661 300.421 274.166C301.479 274.885 302.254 275.774 302.744 276.832C303.234 277.89 303.41 279.037 303.272 280.273C303.128 281.481 302.635 282.706 301.793 283.947Z" fill="white"/>
<path d="M310.302 272.289L293.477 261.456L296.433 256.866L313.258 267.698L310.302 272.289Z" fill="white"/>
<path d="M316.827 260.129L299.104 250.84L301.638 246.004L315.668 253.357L319.54 245.97L323.233 247.906L316.827 260.129Z" fill="white"/>
<path d="M41.9542 150.001L22.9834 143.636L25.6553 135.673C26.7559 132.392 28.3665 130.264 30.4871 129.288C32.6142 128.293 35.2325 128.317 38.3421 129.36C41.4328 130.397 43.5264 131.954 44.6228 134.031C45.7255 136.088 45.7266 138.757 44.6261 142.038L41.9542 150.001ZM39.7564 143.536L40.4912 141.346C41.0192 139.773 40.9839 138.432 40.3852 137.324C39.7739 136.19 38.5013 135.299 36.5672 134.65C34.6142 133.995 33.0616 133.938 31.9095 134.48C30.7448 134.996 29.8984 136.042 29.3704 137.615L28.6356 139.805L39.7564 143.536Z" fill="white"/>
<path d="M50.7341 126.046L32.6378 117.507L38.591 104.891L42.3351 106.658L38.7119 114.336L42.1305 115.949L45.2543 109.329L48.9984 111.096L45.8617 117.743L49.3074 119.369L52.9433 111.664L56.6874 113.431L50.7341 126.046Z" fill="white"/>
<path d="M64.3855 103.038C63.8484 103.882 63.3152 104.645 62.7858 105.327C62.2564 106.01 61.7171 106.615 61.1678 107.142C60.6124 107.642 60.0225 108.084 59.3981 108.469L55.0961 105.73C56.2911 105.306 57.3658 104.698 58.3201 103.906C59.2575 103.104 59.9841 102.298 60.4997 101.489C60.9079 100.848 61.1174 100.258 61.1283 99.7194C61.1392 99.181 60.8578 98.7292 60.2842 98.364C59.8962 98.1169 59.4605 98.1122 58.9773 98.3498C58.4879 98.5598 57.9463 98.9263 57.3526 99.4492C56.7527 99.9445 56.0653 100.503 55.2905 101.124C54.8211 101.489 54.3232 101.824 53.797 102.129C53.2815 102.417 52.7339 102.626 52.154 102.754C51.5741 102.883 50.9529 102.89 50.2903 102.777C49.6276 102.663 48.9252 102.37 48.1829 101.897C47.4406 101.425 46.818 100.839 46.315 100.139C45.8228 99.4225 45.4924 98.6194 45.3239 97.7297C45.1554 96.84 45.2017 95.8736 45.4627 94.8306C45.7069 93.7768 46.1942 92.6764 46.9246 91.5292C47.3651 90.8375 47.8047 90.2401 48.2435 89.7371C48.6655 89.2234 49.1166 88.7756 49.5968 88.3937C50.0877 87.995 50.6209 87.6232 51.1962 87.2782L55.5488 90.0496C54.9919 90.2167 54.409 90.4619 53.7999 90.7854C53.2016 91.0921 52.6294 91.4509 52.0832 91.8618C51.537 92.2728 51.0752 92.7374 50.6977 93.2558C50.3908 93.7006 50.159 94.1576 50.0025 94.627C49.8397 95.0687 49.7959 95.4913 49.871 95.8947C49.9568 96.2813 50.2021 96.6035 50.607 96.8613C51.0288 97.1298 51.4521 97.2097 51.877 97.1009C52.2958 96.9645 52.7454 96.7054 53.2256 96.3236C53.6997 95.9141 54.2144 95.4594 54.7698 94.9595C55.4234 94.3799 56.0594 93.8838 56.6776 93.4713C57.3067 93.042 57.941 92.7346 58.5807 92.5492C59.2204 92.3637 59.8854 92.3248 60.5756 92.4323C61.249 92.5291 61.9653 92.8192 62.7244 93.3026C63.8041 93.9901 64.6046 94.8554 65.1259 95.8986C65.6472 96.9418 65.857 98.0831 65.7555 99.3225C65.6478 100.534 65.1911 101.773 64.3855 103.038Z" fill="white"/>
<path d="M72.4041 92.189L56.9467 79.4819L60.4139 75.2642L75.8714 87.9712L72.4041 92.189Z" fill="white"/>
<path d="M86.2162 79.3225C84.6524 80.5041 83.0752 81.2698 81.4844 81.6195C79.8937 81.9692 78.305 81.7909 76.7185 81.0846C75.1358 80.3503 73.5849 78.9778 72.0657 76.9673C70.5826 75.0046 69.704 73.1617 69.4298 71.4387C69.1595 69.6877 69.3978 68.0788 70.1445 66.6121C70.8912 65.1454 72.0385 63.8273 73.5863 62.6577C74.6235 61.874 75.7072 61.2181 76.8373 60.6901C77.9834 60.1499 79.1498 59.7198 80.3367 59.3995L83.2847 63.3009C81.8695 63.518 80.6324 63.7885 79.5736 64.1123C78.5186 64.408 77.5524 64.8875 76.6747 65.5507C75.845 66.1777 75.2415 66.8718 74.8642 67.6332C74.4908 68.3665 74.4219 69.2208 74.6574 70.1959C74.8808 71.1551 75.4869 72.289 76.4756 73.5974C77.4402 74.874 78.3734 75.7606 79.2752 76.2574C80.1649 76.7382 81.0035 76.9192 81.7911 76.8004C82.5947 76.6695 83.3475 76.3388 84.0496 75.8083C84.4485 75.5068 84.7894 75.2116 85.0724 74.9226C85.3593 74.6056 85.5722 74.3068 85.7112 74.0263L83.8483 71.561L81.4548 73.3696L78.959 70.0665L85.6848 64.9843L91.3999 72.5479C90.8248 73.91 90.0993 75.1726 89.2235 76.3357C88.3516 77.4709 87.3491 78.4665 86.2162 79.3225Z" fill="white"/>
<path d="M96.3653 70.3596L85.1381 53.7961L88.8631 51.2712L104.33 56.5526L104.917 60.359L95.6425 46.676L99.7647 43.8818L110.992 60.4454L107.714 62.6673L92.3822 57.6928L91.9456 55.0168L100.463 67.5823L96.3653 70.3596Z" fill="white"/>
<path d="M126.638 52.9507L121.192 33.696L126.417 32.2182L128.564 39.8104L134.944 38.006L132.797 30.4138L138.022 28.936L143.468 48.1908L138.243 49.6685L136.144 42.2496L129.765 44.0539L131.863 51.4729L126.638 52.9507Z" fill="white"/>
<path d="M159.862 47.591C157.898 47.8401 156.125 47.692 154.544 47.1466C152.983 46.5986 151.688 45.6137 150.661 44.1916C149.654 42.767 149.001 40.8741 148.701 38.5131C148.269 35.1004 148.805 32.4116 150.309 30.4467C151.834 28.4792 154.144 27.2992 157.239 26.9067C159.203 26.6575 160.966 26.8069 162.527 27.3549C164.109 27.9003 165.403 28.8853 166.41 30.3098C167.435 31.7121 168.098 33.6037 168.4 35.9846C168.833 39.3973 168.297 42.0861 166.792 44.051C165.287 46.0159 162.977 47.1959 159.862 47.591ZM159.311 43.2458C160.204 43.1326 160.944 42.8472 161.531 42.3897C162.118 41.9322 162.525 41.2455 162.752 40.3298C162.996 39.3916 163.022 38.1686 162.831 36.6607C162.642 35.1726 162.314 34.0147 161.846 33.187C161.398 32.3567 160.834 31.8033 160.153 31.5267C159.471 31.2302 158.683 31.1386 157.79 31.2519C156.897 31.3651 156.158 31.6604 155.574 32.1377C154.987 32.5952 154.57 33.2831 154.324 34.2014C154.097 35.1172 154.079 36.3291 154.271 37.837C154.459 39.3251 154.778 40.4842 155.226 41.3145C155.691 42.1223 156.265 42.6745 156.948 42.971C157.631 43.2674 158.418 43.359 159.311 43.2458Z" fill="white"/>
<path d="M182.542 46.6392C179.364 46.5412 177.005 45.8281 175.465 44.5C173.945 43.1725 173.228 41.1195 173.314 38.3408L173.705 25.6568L179.372 25.8316L178.99 38.2157C178.947 39.635 179.184 40.6928 179.703 41.3891C180.242 42.0861 181.141 42.454 182.4 42.4928C183.52 42.5273 184.4 42.2143 185.04 41.5537C185.681 40.8932 186.023 39.8532 186.067 38.4339L186.449 26.0498L191.606 26.2088L191.215 38.8928C191.158 40.7519 190.751 42.2601 189.995 43.4173C189.239 44.5746 188.213 45.4133 186.916 45.9336C185.64 46.4545 184.182 46.6897 182.542 46.6392Z" fill="white"/>
<path d="M204.034 48.9784C203.052 48.7874 202.147 48.5704 201.318 48.3276C200.489 48.0848 199.729 47.8044 199.037 47.4863C198.368 47.1525 197.74 46.7654 197.154 46.3252L198.128 41.3192C198.961 42.2758 199.92 43.0534 201.005 43.6518C202.095 44.2306 203.111 44.6117 204.053 44.7951C204.799 44.9403 205.425 44.9194 205.93 44.7324C206.435 44.5454 206.752 44.1182 206.882 43.4507C206.97 42.9992 206.815 42.5921 206.417 42.2294C206.042 41.8508 205.503 41.481 204.799 41.1199C204.118 40.7429 203.347 40.3076 202.486 39.8139C201.974 39.5106 201.48 39.17 201.004 38.792C200.547 38.4178 200.152 37.9845 199.82 37.492C199.488 36.9995 199.254 36.4241 199.117 35.7658C198.98 35.1076 198.996 34.3466 199.164 33.4828C199.332 32.619 199.65 31.825 200.117 31.1009C200.603 30.3806 201.23 29.7792 201.996 29.2967C202.762 28.8142 203.678 28.5035 204.745 28.3646C205.815 28.2061 207.017 28.2567 208.352 28.5165C209.157 28.6732 209.874 28.8636 210.503 29.0878C211.135 29.2925 211.717 29.5483 212.248 29.8554C212.799 30.1664 213.34 30.5264 213.872 30.9355L212.886 36.0005C212.527 35.5434 212.085 35.0907 211.561 34.6423C211.057 34.1978 210.513 33.7966 209.931 33.4388C209.348 33.0809 208.747 32.8212 208.126 32.6597C207.6 32.5369 207.09 32.4886 206.596 32.5147C206.125 32.525 205.716 32.6389 205.368 32.8564C205.04 33.0777 204.83 33.424 204.738 33.8952C204.642 34.386 204.723 34.8092 204.98 35.1648C205.26 35.5046 205.666 35.828 206.197 36.1351C206.752 36.4264 207.363 36.739 208.032 37.0729C208.81 37.4689 209.505 37.8791 210.115 38.3035C210.745 38.7317 211.263 39.2095 211.67 39.7369C212.076 40.2643 212.356 40.8689 212.509 41.5506C212.665 42.2127 212.657 42.9854 212.485 43.8689C212.241 45.1253 211.729 46.187 210.949 47.0539C210.169 47.9209 209.183 48.534 207.993 48.8932C206.826 49.2365 205.506 49.2649 204.034 48.9784Z" fill="white"/>
<path d="M217.434 52.2603L224.282 33.4587L237.389 38.233L235.973 42.123L227.995 39.2173L226.702 42.7691L233.579 45.2743L232.163 49.1643L225.256 46.6488L223.953 50.2287L231.958 53.1446L230.541 57.0346L217.434 52.2603Z" fill="white"/>
<path d="M78.752 227.604L99.1388 111.609L145.745 119.801C165.454 123.265 179.08 130.739 186.623 142.224C194.187 153.593 196.287 168.842 192.925 187.971C189.583 206.985 182.409 220.604 171.402 228.828C160.415 236.937 145.068 239.259 125.358 235.795L78.752 227.604ZM110.745 210.817L125.875 213.476C136.309 215.31 144.702 213.797 151.054 208.938C157.522 204.099 161.856 195.419 164.057 182.898C166.298 170.145 165.194 160.449 160.743 153.81C156.429 147.076 149.055 142.792 138.62 140.958L123.491 138.299L110.745 210.817Z" fill="white"/>
<path d="M238.061 186.746L201.385 179.75L197.563 202.742L234.238 209.738L226.564 255.896L254.607 260.558L273.922 144.38L245.879 139.718L238.061 186.746Z" fill="white"/>
<path fill-rule="evenodd" clip-rule="evenodd" d="M25.3537 158.08C20.024 186.31 22.6708 215.467 32.9969 242.275C43.323 269.084 60.9194 292.483 83.8096 309.843C106.7 327.204 133.977 337.838 162.577 340.552C183.928 342.578 205.384 340.13 225.601 333.456L221.049 324.758C202.544 330.641 182.971 332.766 163.491 330.917C136.683 328.374 111.114 318.405 89.6576 302.132C68.2013 285.859 51.7071 263.926 42.0278 238.797C32.3484 213.667 29.8674 186.337 34.8633 159.875L25.3537 158.08ZM322.636 238.804C328.543 222.3 331.625 204.834 331.671 187.145C331.746 158.417 323.809 130.236 308.753 105.769C293.696 81.302 272.115 61.5177 246.435 48.6383L242.097 57.2889C266.168 69.3615 286.397 87.9066 300.511 110.841C314.624 133.776 322.064 160.191 321.994 187.12C321.951 203.318 319.193 219.316 313.904 234.469L322.636 238.804Z" fill="white"/>
</svg>
